<?xml version="1.0" encoding="UTF-8" standalone="no"?>
<!-- Created with Inkscape (http://www.inkscape.org/) -->

<svg
   xmlns:dc="http://purl.org/dc/elements/1.1/"
   xmlns:cc="http://creativecommons.org/ns#"
   xmlns:rdf="http://www.w3.org/1999/02/22-rdf-syntax-ns#"
   xmlns:svg="http://www.w3.org/2000/svg"
   xmlns="http://www.w3.org/2000/svg"
   xmlns:sodipodi="http://sodipodi.sourceforge.net/DTD/sodipodi-0.dtd"
   xmlns:inkscape="http://www.inkscape.org/namespaces/inkscape"
   width="169.33333mm"
   height="121.16942mm"
   viewBox="0 0 599.99995 429.34048"
   id="svg2"
   version="1.1"
   inkscape:version="0.91 r13725"
   sodipodi:docname="Hawk.svg">
  <defs
     id="defs4" />
  <sodipodi:namedview
     id="base"
     pagecolor="#ffffff"
     bordercolor="#666666"
     borderopacity="1.0"
     inkscape:pageopacity="0.0"
     inkscape:pageshadow="2"
     inkscape:zoom="1.5605331"
     inkscape:cx="299.99999"
     inkscape:cy="214.67023"
     inkscape:document-units="px"
     inkscape:current-layer="layer1"
     showgrid="false"
     fit-margin-top="0"
     fit-margin-left="0"
     fit-margin-right="0"
     fit-margin-bottom="0"
     inkscape:window-width="1600"
     inkscape:window-height="837"
     inkscape:window-x="-8"
     inkscape:window-y="-8"
     inkscape:window-maximized="1" />
  <metadata
     id="metadata7">
    <rdf:RDF>
      <cc:Work
         rdf:about="">
        <dc:format>image/svg+xml</dc:format>
        <dc:type
           rdf:resource="http://purl.org/dc/dcmitype/StillImage" />
        <dc:title></dc:title>
      </cc:Work>
    </rdf:RDF>
  </metadata>
  <g
     inkscape:label="Layer 1"
     inkscape:groupmode="layer"
     id="layer1"
     transform="translate(134.43476,1284.1462)">
    <g
       id="g5373">
      <path
         inkscape:connector-curvature="0"
         style="fill:#ffdd77;fill-opacity:1;fill-rule:evenodd"
         id="path27"
         d="m -131.23544,-1212.5682 c 0,39.5502 53.230838,60.66 53.230838,76.858 l -0.137373,3.3367 c -29.510535,-14.7798 -40.291155,-12.0859 -56.013095,-45.4435 l -0.2797,6.3938 c 0,72.2601 44.265797,51.5134 71.160927,91.7359 -20.29524,-6.1828 -37.440207,-9.2693 -55.453707,-21.9686 19.853607,68.256 47.479868,45.0902 91.868347,70.7488 -17.041914,-1.7077 -34.142714,-1.5899 -51.150292,-3.3368 24.407286,31.5126 36.787574,28.4948 71.9951109,28.4948 5.60375334,0 11.8846883,0.5545 16.2617091,4.4457 -11.9828322,7.96405 -28.951138,11.22228 -43.08323,8.20449 6.683298,9.01902 21.448378,16.53159 32.6608207,16.53159 18.4011403,0 30.7028553,-14.73073 47.8086353,-14.73073 1.874442,0 5.495795,1.51626 7.090568,2.50255 -13.494125,2.78717 -20.771283,17.1646 -38.642416,20.85464 6.114075,2.80679 13.35186,5.4173 20.152917,5.4173 19.333425,0 33.220272,-19.17645 47.671233,-19.17645 0.966678,0 2.110104,0.38274 3.057095,0.55449 -10.108434,6.28583 -14.828917,18.27847 -25.015809,24.04417 3.081559,2.13943 7.149483,2.91474 10.839595,2.91474 21.148951,0 31.110166,-21.12452 40.722956,-21.12452 4.33283,0 8.19955,2.39459 8.19955,7.09057 0,10.67757 -18.48458,28.59783 -18.48458,47.39154 0,6.21223 3.53305,13.19485 10.42241,9.17114 -2.16888,5.37803 -3.0571,11.3302 -3.0571,17.09589 0,24.23063 31.64997,28.15621 48.64776,33.3527 5.65777,1.73706 9.15637,6.40358 15.84467,6.40358 3.65566,0 6.68322,-4.1611 8.06202,-7.09057 21.62027,-1.79104 48.50546,-7.16908 48.50546,-34.32917 0,-5.64303 -0.71147,-11.45288 -1.94306,-16.9536 4.42605,-0.4318 9.171,-2.92455 9.171,-7.92476 0,-13.74443 -18.48443,-33.32324 -18.48443,-47.67124 0,-3.60171 3.51828,-6.95808 7.08564,-6.95808 12.32132,0 17.25286,20.30014 41.41475,20.30014 5.92775,0 11.93873,-1.9088 17.5082,-3.75874 -22.58681,-3.25823 -17.83694,-15.44715 -32.65601,-24.60356 l 3.19447,-0.41219 c 10.14766,0 25.98741,18.62197 49.8941,18.62197 4.77447,0 11.30571,-2.29156 15.42748,-4.59293 -12.45883,-3.95992 -19.14698,-15.50603 -30.99234,-18.62196 l 2.63991,-2.91475 c 1.18251,-0.26007 2.6939,-0.83418 3.8961,-0.83418 12.58636,0 25.73713,10.55981 39.33432,10.55981 12.71404,0 23.0383,-4.68616 30.85496,-15.01043 -14.19083,0.0294 -27.42497,-6.13375 -41.00262,-9.46065 8.59704,-8.6166 30.15825,-5.5596 41.56211,-5.5596 21.81149,0 38.03397,-11.4529 46.97437,-31.2721 -4.22976,1.7714 -9.20052,2.3651 -13.75902,2.3651 -9.35281,0 -18.58273,-1.9431 -27.93539,-1.9431 -3.03263,0 -6.9435,0.7655 -9.31344,2.7773 23.6221,-41.1548 59.12402,9.4312 92.84471,-74.7724 -23.11184,17.4884 -50.14424,13.4647 -63.24101,24.8685 7.1544,-5.4516 10.26535,-14.1762 18.07231,-19.0341 8.90132,-5.5498 19.05883,-6.2368 28.49487,-10.0152 21.21279,-8.4841 24.14235,-45.9096 24.87337,-64.9045 -24.80953,41.5768 -33.11706,17.0959 -54.89917,41.4198 l -0.41704,-5.2799 c 0,-24.6919 47.8086,-18.8036 47.8086,-84.7876 0,-15.6434 -8.30753,-34.3832 -15.98204,-47.6712 -2.37978,87.4079 -101.87848,92.6338 -101.87848,128.1455 0,16.3991 8.20447,22.1109 8.20447,44.7565 0,3.7833 -6.26141,15.5649 -8.67072,18.622 -33.30366,42.4257 -113.08604,58.231 -164.50616,58.231 -59.04078,0 -134.465876,-11.5559 -176.6019848,-57.1662 -5.5203451,-5.9718 -14.7798022,-20.3639 -14.7798022,-28.8579 0,-24.0834 16.93395507,-23.8086 17.7926748,-30.0258 -0.1766454,-8.0032 -23.3522778,-27.901 -30.1582558,-30.855 -40.536486,-17.5719 -94.365992,-37.5334 -84.782672,-93.2472 -11.89836,17.7245 -16.6827,37.1268 -17.93007,58.0985 z" />
      <path
         inkscape:connector-curvature="0"
         style="fill:#b96c19;fill-opacity:1;fill-rule:evenodd"
         id="path4044"
         d="m 114.07395,-1039.249 c -54.03556,0 -95.872444,-25.6291 -122.1640004,-72.8293 12.3753811,-7.7922 21.1245164,-20.5945 21.1245164,-35.443 0,-7.9248 -4.3279491,-15.3687 -8.8963374,-21.4533 -26.6841196,-35.5756 -89.4541096,-23.6614 -111.7415786,-69.7232 -4.53896,-9.387 -5.71663,-19.7751 -7.64507,-29.8834 -2.23267,98.2179 64.85055,71.4062 92.888989,108.4146 2.227761,2.9393 5.65284,8.0769 5.65284,11.9485 0,9.8728 -4.637089,16.9536 -15.147829,16.9536 -1.791047,0 -6.025759,-2.3014 -7.365372,-3.4693 26.816614,79.2967 93.188386,113.9547 174.702922,107.026 5.50564,24 14.14683,41.83195 40.86033,41.83195 4.03362,0 8.92101,-1.12369 12.78265,-2.22285 0.74593,2.00204 0.69686,4.1513 0.69686,6.24657 0,6.85996 -7.28194,15.58454 -11.39401,20.57494 3.91086,8.42527 8.74918,49.75179 17.37068,49.75179 l 0.83423,-0.31405 0.37289,-0.65262 0.0492,-0.41219 0.0434,-0.47106 0.36812,0.37292 0.27966,0.37293 c 4.13162,7.62053 8.06217,15.84461 8.06217,24.73606 0,3.96973 -0.98636,9.74524 -5.41734,11.11919 l 2.77729,6.39378 c 3.76365,0.82437 7.84633,2.64486 11.67368,2.64486 9.3625,0 9.35758,-7.67449 13.06738,-13.76405 -10.07413,-6.87958 -9.38219,-3.84216 -12.22824,-17.09589 -4.96584,-23.09713 -7.23286,-44.77613 -7.23286,-68.38357 0,-19.52485 2.29641,-39.28521 3.34169,-58.78551 7.30147,0.2306 14.65217,0.6919 21.96349,0.6919 71.95096,0 121.06483,-51.8471 140.23149,-117.3061 -1.55062,1.4377 -5.7853,3.6115 -7.92479,3.6115 -7.64991,0 -19.31866,-5.751 -19.31866,-14.7307 0,-39.4766 96.73603,-25.1482 96.73603,-112.0262 0,-5.7804 -1.62908,-12.817 -2.36517,-18.622 -2.65467,13.2292 -2.24733,26.5566 -8.6118,38.9172 -23.01847,44.678 -113.55215,33.9416 -113.55215,89.091 0,16.1292 13.31752,30.4478 26.40445,38.083 -28.13168,52.1072 -66.14119,77.697 -125.63824,77.697 -24.52003,0 -36.69427,-35.8748 -36.69427,-55.596 0,-10.6284 10.26043,-18.1508 20.29518,-16.8211 -4.12177,-4.1218 -10.73146,-2.7675 -16.404,-3.4692 4.05316,-2.2719 10.62854,-7.0906 15.29011,-7.0906 1.59477,0 3.32214,0.4613 4.44574,1.6684 1.34941,-0.422 2.91972,-1.953 2.91972,-3.479 0,-4.3918 -4.61756,-6.1141 -8.34184,-6.1141 -3.42506,0 -7.04149,1.2758 -10.00537,2.9245 -1.77629,-2.0413 -6.41832,-4.5929 -9.17114,-4.5929 -21.53675,0 -36.47843,33.5833 -39.19202,51.2926 -1.45248,9.4704 0.60855,40.934 -14.73063,41.6896 -4.67156,0.2257 -9.39204,0.6968 -14.05361,0.6968 l 0,0 z" />
      <path
         inkscape:connector-curvature="0"
         style="fill:#2e2d00;fill-opacity:1;fill-rule:evenodd"
         id="path4042"
         d="m 202.1934,-860.9345 c -1.32987,-0.49071 -2.36516,-3.13557 -2.36516,-4.44573 l 0,-1.80086 c 0,-0.92251 1.02545,-2.01186 1.8106,-2.36516 l -1.94798,-6.66858 c -3.80302,0.24046 -8.7541,2.84606 -8.7541,7.22797 l 0,2.09038 0.37289,1.38867 c 0.88822,3.33674 4.41143,5.14742 7.68436,5.14742 0.93237,-0.004 2.25225,-0.40728 3.19939,-0.57411 l 0,0 z" />
      <path
         inkscape:connector-curvature="0"
         style="fill:#2e2d00;fill-opacity:1;fill-rule:evenodd"
         id="path4040"
         d="m 238.04374,-872.74069 c 0,-2.09036 -1.16789,-3.73911 -2.22287,-5.4222 -0.28459,0.0589 -0.77531,-0.16193 -1.06482,-0.23063 -1.11882,-0.27969 -2.44855,-1.22674 -3.52321,-1.71744 -0.92253,-0.422 -1.95797,-0.40237 -2.91972,-0.7017 -1.45248,1.62912 -2.50254,5.95217 -2.50254,8.07197 l 0,0.8342 c 2.61052,0.91268 4.17099,1.89899 4.17099,4.8579 0,2.01185 -2.35532,3.64096 -4.0287,4.31322 6.83059,-0.71642 12.09087,-1.91372 12.09087,-10.00532 l 0,0 z" />
      <path
         inkscape:connector-curvature="0"
         style="fill:#2e2d00;fill-opacity:1;fill-rule:evenodd"
         id="path29"
         d="m 248.05881,-878.02058 c 0,-3.63117 -3.11587,-8.20447 -7.08565,-8.20447 -2.84112,0 -10.5304,1.35923 -12.6502,3.05704 l -0.13752,0.41219 c 3.08156,0.88326 9.47542,2.98835 9.868,6.81578 0.34828,-0.0392 0.76546,-0.13245 1.11389,-0.13245 l 2.09027,0 c 1.10406,0 2.35532,1.58004 2.35532,2.63505 0,1.24636 -1.13835,3.26804 -1.94305,4.17091 4.35729,-1.87445 6.38879,-3.57717 6.38879,-8.75402 l 0,0 z" />
      <path
         inkscape:connector-curvature="0"
         style="fill:#485e88;fill-rule:evenodd"
         id="path4036"
         d="m 178.28656,-1126.6765 c 0.42197,0.2306 0.75085,0.4318 0.83423,0.5545 l 0.41704,0.2797 0.13752,0.4122 c 0,0.4612 -1.57509,1.5162 -1.94306,1.3886 l -0.55948,-0.1324 -0.8293,-0.8342 -0.14186,-0.422 0.14186,-0.4122 c -0.37782,0.2012 -1.66831,1.6095 -1.66831,2.0904 l 0,0.5545 c 0.19136,0.088 0.19136,0.3827 0.27967,0.5545 0.31904,0.6428 1.73706,0.8243 2.35532,0.8243 0.83422,0 3.4349,-1.3396 4.03361,-1.9382 0.21091,-0.2208 0.37289,-0.6134 0.51027,-0.8833 l 0.18644,-0.3729 0,-0.8342 c -0.64271,-0.2306 -0.53487,-0.633 -1.53093,-0.8342 -0.0883,-0.02 -0.35335,-0.1324 -0.41705,-0.1324 l -1.11389,0 c -0.22582,0 -0.42703,0.1962 -0.69193,0.1373 l 0,0 z" />
      <path
         inkscape:connector-curvature="0"
         style="fill:#000000;fill-opacity:1;fill-rule:evenodd"
         id="path31"
         d="m 166.19092,-1117.6379 c 3.92549,-5.5007 8.40075,-11.5412 15.84453,-11.5412 1.1385,0 2.63513,0.422 3.75394,0.7017 l -0.69685,0.6919 -0.9716,0 -0.41704,0.2797 c -0.20121,3.9305 -3.44475,6.5263 -7.22794,6.5263 -1.09435,0 -3.27307,-1.5163 -3.89132,-2.3554 -2.19334,1.1041 -4.7794,5.226 -6.39372,5.697 l 0,0 z" />
      <path
         inkscape:connector-curvature="0"
         style="fill:#b96c19;fill-opacity:1;fill-rule:evenodd"
         id="path4032"
         d="m 133.67242,-986.57754 c 0.32382,-0.86362 1.33465,-0.83419 2.08058,-0.83419 14.41665,0 17.9251,21.80168 29.04928,27.8029 -12.84649,10.8297 -4.79416,51.42508 -17.09594,51.42508 -0.69685,0 -1.13358,-0.67226 -1.24634,-1.25619 l 0,-0.97647 c -0.67225,0 -0.13752,3.00796 -0.13752,3.34654 0,8.28788 -9.31344,15.29504 -9.31344,24.03436 0,3.75874 2.84605,8.29768 6.39372,9.59313 l -2.77729,6.39379 c -3.94039,0.66243 -7.84633,2.64486 -11.81105,2.64486 -8.63627,0 -10.36856,-7.51258 -13.06738,-13.89655 2.89511,-1.98243 7.24763,-3.19935 9.58833,-5.70191 3.49367,-3.7293 6.81075,-22.14025 6.81075,-27.93539 0,-10.6972 -2.63991,-21.54652 -2.63991,-32.51851 0,-14.11736 3.79796,-28.03353 4.16607,-42.12145 l 0,0 z" />
      <path
         inkscape:connector-curvature="0"
         style="fill:#2e2d00;fill-opacity:1;fill-rule:evenodd"
         id="path4030"
         d="m 141.5923,-857.59777 c 1.25127,-0.68207 2.22272,-3.21898 2.22272,-4.58311 l 0,-1.81068 c 0,-0.81455 -1.02053,-1.94315 -1.66831,-2.35535 l 1.9432,-6.66857 c 3.52321,0.16194 7.3064,2.44368 8.24862,5.97179 l 0.37289,1.38867 c 0,5.10816 -2.90004,8.61664 -8.19954,8.61664 -0.82931,-0.004 -2.08058,-0.39745 -2.91958,-0.55939 l 0,0 z" />
      <path
         inkscape:connector-curvature="0"
         style="fill:#2e2d00;fill-opacity:1;fill-rule:evenodd"
         id="path4028"
         d="m 95.447079,-874.68385 c 0,-3.59189 3.577203,-8.34676 7.365311,-8.34676 2.04135,0 12.05149,1.55061 12.78758,3.34655 -2.28656,0.43182 -10.60886,3.94031 -10.00523,6.94828 -0.741,-0.12261 -1.47708,-0.1423 -2.22779,-0.1423 -1.35925,0 -2.75282,0.70169 -3.33676,1.94316 l 0,0.83418 c 0,1.51626 1.0599,3.02761 2.08549,4.03353 -4.421269,-1.5555 -6.668601,-3.5968 -6.668601,-8.61664 l 0,0 z" />
      <path
         inkscape:connector-curvature="0"
         style="fill:#2e2d00;fill-opacity:1;fill-rule:evenodd"
         id="path33"
         d="m 105.59966,-869.54625 c 0,-2.08055 1.15805,-3.71949 2.36025,-5.27989 0.0449,0.0101 5.7067,-2.44368 7.36039,-2.77736 1.11882,2.23267 1.99227,4.03353 2.40931,6.5361 0.13318,0.78511 0.029,1.58003 0.2306,2.35533 -2.581,0.75568 -4.44559,1.94317 -4.44559,4.86773 0,2.05112 2.4387,3.71948 4.17084,4.30341 -6.83536,-0.76059 -12.08594,-1.77632 -12.08594,-10.00532 l 0,0 z" />
      <path
         inkscape:connector-curvature="0"
         style="fill:#ffdd77;fill-opacity:1;fill-rule:evenodd"
         id="path3764"
         d="m 159.38494,-1031.334 c -0.40242,0.6231 -0.60363,1.3494 -0.9716,1.9431 -1.37387,2.2327 -4.96092,4.7352 -7.64512,4.7352 l -2.08535,0 c -3.21416,0 -8.11617,-3.69 -8.61673,-6.958 l -0.27967,0.9765 0,3.057 c 0,3.69 4.55373,9.7256 8.47921,9.7256 l 2.64498,0 c 0.82424,0 2.17857,-0.633 2.8705,-1.0648 3.90102,-2.4339 5.24059,-5.9129 5.60871,-10.3292 l 0,-0.422 -0.13752,-0.4122 c 0.068,-0.3729 0.18152,-0.5643 0.13752,-0.6918 l 0,-0.5594 0,0 z" />
      <path
         inkscape:connector-curvature="0"
         style="fill:#ffdd77;fill-opacity:1;fill-rule:evenodd"
         id="path3762"
         d="m 180.09239,-1030.4999 c -0.40242,0.6232 -0.60363,1.3495 -0.9716,1.953 -1.3691,2.2327 -4.96584,4.7254 -7.64513,4.7254 l -2.08535,0 c -3.30245,0 -8.24876,-3.8716 -8.6118,-7.2279 -0.21106,0.2502 -0.14186,0.6526 -0.14186,0.9666 l -0.13752,3.1994 c 0,3.7391 4.50957,9.7256 8.47921,9.7256 l 2.64005,0 c 0.82916,0 2.1835,-0.633 2.87051,-1.0746 3.89117,-2.4241 5.53502,-5.6185 5.74607,-10.1869 -0.23059,-0.108 -0.14186,-1.7371 -0.14186,-2.0806 l 0,0 z" />
      <path
         inkscape:connector-curvature="0"
         style="fill:#ffdd77;fill-opacity:1;fill-rule:evenodd"
         id="path3760"
         d="m 200.10298,-1031.334 c -1.07466,2.9785 -4.48496,5.9816 -7.7825,5.9816 l -1.94305,0 c -3.17001,0 -7.18872,-3.2681 -7.7825,-6.3938 -0.16691,0.2404 -0.13752,0.4318 -0.13752,0.7017 l -0.13752,2.9147 c 0,3.3368 4.22484,8.8964 7.7825,8.8964 l 2.36024,0 c 4.57819,0 7.58607,-6.4135 7.78236,-10.2851 l -0.14186,-1.8155 0,0 z" />
      <path
         inkscape:connector-curvature="0"
         style="fill:#ffdd77;fill-opacity:1;fill-rule:evenodd"
         id="path3758"
         d="m 166.75026,-1017.9822 c -1.14328,2.5026 -3.80288,5.4173 -6.8109,5.4173 l -1.66831,0 c -2.9148,0 -6.39386,-3.0963 -7.08565,-5.8344 -0.17182,0.2503 -0.14186,0.422 -0.14186,0.7017 l -0.13752,2.6351 c 0,3.0865 3.65566,7.9247 6.94828,7.9247 l 2.22287,0 c 0.62317,0 1.9775,-0.7164 2.50253,-1.0648 2.98342,-1.9922 4.10716,-4.5536 4.30837,-8.1063 l -0.13752,-1.6733 0,0 z" />
      <path
         inkscape:connector-curvature="0"
         style="fill:#ffdd77;fill-opacity:1;fill-rule:evenodd"
         id="path3756"
         d="m 178.70375,-1008.1241 c -1.19742,2.6253 -3.67535,5.4222 -6.8109,5.4222 l -1.80583,0 c -2.91958,0 -6.39371,-3.0963 -7.09057,-5.8344 l -0.13751,3.3368 c 0,3.0963 3.63611,7.92476 6.95319,7.92476 l 2.0855,0 c 0.4318,0 1.86459,-0.65263 2.27194,-0.88325 3.15017,-1.80086 4.47512,-4.72541 4.67633,-8.29771 l -0.14186,-1.6684 0,0 z" />
      <path
         inkscape:connector-curvature="0"
         style="fill:#ffdd77;fill-opacity:1;fill-rule:evenodd"
         id="path195"
         d="m 190.23513,-1017.7074 c -1.01575,2.694 -4.87262,5.4173 -7.7825,5.4173 l -1.9432,0 c -3.08156,0 -7.02181,-2.8264 -7.7825,-5.8344 l -0.14186,3.3368 c 0,3.3171 4.31821,7.7824 7.64513,7.7824 l 2.36024,0 c 0.52503,0 1.35433,-0.3631 1.8549,-0.5545 3.63597,-1.3592 5.71162,-4.6076 5.9276,-8.4743 l -0.13752,-1.6733 0,0 z" />
    </g>
  </g>
</svg>
